<svg width="51" height="50" viewBox="0 0 51 50" fill="none" xmlns="http://www.w3.org/2000/svg">
<circle cx="25.5" cy="25" r="24" fill="#F5F5F5" stroke="url(#paint0_linear_1_2081)" stroke-width="2"/>
<g clip-path="url(#clip0_1_2081)">
<path fill-rule="evenodd" clip-rule="evenodd" d="M36 25C36 31.0657 31.0656 36 25 36C18.9344 36 14 31.0657 14 25C14 18.9344 18.9344 14 25 14C26.2327 13.9986 27.4567 14.2049 28.621 14.6103C28.7686 14.6608 28.8779 14.7866 28.9072 14.9397C28.9366 15.0929 28.8818 15.2502 28.7635 15.3517C28.6453 15.4534 28.4814 15.484 28.3346 15.4318C27.2625 15.0584 26.1352 14.8686 25 14.8701C19.4143 14.8701 14.8701 19.4143 14.8701 25C14.8701 30.5857 19.4143 35.13 25 35.13C30.5857 35.13 35.1299 30.5857 35.1299 25C35.1326 23.6605 34.8678 22.3338 34.3507 21.0979C34.289 20.9542 34.3094 20.7883 34.4036 20.6636C34.498 20.539 34.6522 20.4747 34.8073 20.4951C34.9622 20.5152 35.0945 20.6174 35.1535 20.7621C35.715 22.1044 36.0027 23.5451 36 25ZM28.6973 16.8292C28.8672 16.6592 29.1427 16.6592 29.3127 16.8292L31.0363 18.553L34.2978 15.4379C34.4099 15.3289 34.5718 15.2884 34.7219 15.3318C34.8721 15.3753 34.9874 15.4962 35.0241 15.6481C35.0605 15.8001 35.0127 15.9601 34.8986 16.0671L31.3298 19.4758C31.1589 19.6391 30.8889 19.6362 30.7216 19.469L28.6973 17.4446C28.5276 17.2746 28.5276 16.9991 28.6973 16.8292Z" fill="url(#paint1_linear_1_2081)"/>
</g>
<path fill-rule="evenodd" clip-rule="evenodd" d="M28.231 22.9704C28.2484 22.9803 28.2633 22.9944 28.2744 23.0116C28.4394 23.095 28.5442 23.2689 28.5444 23.4597V28.2411C28.5442 28.4738 28.3627 28.6622 28.1388 28.6625H21.9501C21.7262 28.6622 21.5447 28.4738 21.5444 28.2411V23.4597C21.5447 23.204 21.7311 22.9899 21.9759 22.9638L24.2386 21.6784C24.2988 21.6442 24.3744 21.6672 24.4073 21.7297C24.4403 21.7923 24.4182 21.8708 24.3579 21.9051L22.4988 22.9614H27.6967L25.8375 21.9051C25.7772 21.8708 25.7551 21.7923 25.7881 21.7297C25.821 21.6672 25.8966 21.6442 25.9568 21.6784L28.231 22.9704ZM23.4454 27.3706C23.5142 27.3706 23.5698 27.3127 23.5698 27.2414V26.6138C23.5698 26.5424 23.5142 26.4846 23.4454 26.4846H22.3795C22.3108 26.4846 22.2551 26.5424 22.2551 26.6138V27.2414C22.2551 27.3127 22.3108 27.3706 22.3795 27.3706H23.4454ZM24.0495 27.2229H24.8668C24.9355 27.2229 24.9911 27.165 24.9911 27.0937C24.9911 27.0223 24.9355 26.9645 24.8668 26.9645H24.0495C23.9808 26.9645 23.9251 27.0223 23.9251 27.0937C23.9251 27.165 23.9808 27.2229 24.0495 27.2229ZM24.0495 26.743H25.6663C25.735 26.743 25.7906 26.6851 25.7906 26.6138C25.7906 26.5424 25.735 26.4846 25.6663 26.4846H24.0495C23.9808 26.4846 23.9251 26.5424 23.9251 26.6138C23.9251 26.6851 23.9808 26.743 24.0495 26.743ZM25.9195 24.8057V23.2889C25.9195 23.2644 25.9262 23.2404 25.9389 23.2198H24.1512C24.1631 23.2399 24.1694 23.2631 24.1694 23.2868V24.8058L24.2875 24.6749C24.311 24.6489 24.3438 24.6341 24.3782 24.6341C24.4125 24.6341 24.4454 24.6489 24.4689 24.6749L24.7114 24.9435L24.9539 24.6749C24.9773 24.6489 25.0102 24.6341 25.0446 24.6341C25.0789 24.6341 25.1118 24.6489 25.1353 24.6749L25.3777 24.9435L25.62 24.6749C25.6435 24.6489 25.6763 24.6341 25.7107 24.6341C25.7451 24.6341 25.7779 24.6489 25.8015 24.6749L25.9195 24.8057ZM23.3213 26.743H22.504V27.1122H23.3213V26.743Z" fill="url(#paint2_linear_1_2081)"/>
<defs>
<linearGradient id="paint0_linear_1_2081" x1="25.5" y1="0" x2="25.4997" y2="50" gradientUnits="userSpaceOnUse">
<stop stop-color="#927628"/>
<stop offset="1" stop-color="#FFCE00"/>
</linearGradient>
<linearGradient id="paint1_linear_1_2081" x1="25" y1="14" x2="24.9999" y2="36" gradientUnits="userSpaceOnUse">
<stop stop-color="#927628"/>
<stop offset="1" stop-color="#FFCE00"/>
</linearGradient>
<linearGradient id="paint2_linear_1_2081" x1="25.0444" y1="21.6625" x2="25.0444" y2="28.6625" gradientUnits="userSpaceOnUse">
<stop stop-color="#927628"/>
<stop offset="1" stop-color="#FFCE00"/>
</linearGradient>
<clipPath id="clip0_1_2081">
<rect width="22" height="22" fill="white" transform="translate(14 14)"/>
</clipPath>
</defs>
</svg>
