<svg width="51" height="50" viewBox="0 0 51 50" fill="none" xmlns="http://www.w3.org/2000/svg">
<circle cx="25.5" cy="25" r="24" fill="#F5F5F5" stroke="url(#paint0_linear_1_2058)" stroke-width="2"/>
<path fill-rule="evenodd" clip-rule="evenodd" d="M17.3597 15.3116H14.6326C14.432 15.3116 14.2695 15.1313 14.2695 14.9088C14.2695 14.6862 14.432 14.506 14.6326 14.506H17.3597C18.736 14.5078 19.8514 15.7452 19.853 17.272V32.0776C20.9732 32.2824 21.841 33.2757 21.9907 34.5243H35.9065C36.107 34.5243 36.2695 34.7048 36.2695 34.9271C36.2695 35.1496 36.107 35.3299 35.9065 35.3299H21.9836C21.7818 36.7896 20.6104 37.8377 19.2819 37.7475C17.9534 37.6576 16.9059 36.4591 16.8655 34.9833C16.8252 33.5072 17.8057 32.2406 19.1267 32.0617V17.2718C19.1256 16.1898 18.3353 15.3129 17.3597 15.3116ZM23.0788 25.4169V31.8809C23.0792 32.3642 23.4324 32.7557 23.868 32.7564H26.3872V25.4169H23.0788ZM28.1312 22.3553C28.1299 22.3551 28.1286 22.355 28.1274 22.355H27.0096V24.6113H29.3161V22.355H28.1422C28.141 22.355 28.1396 22.3551 28.1383 22.3553C28.137 22.3554 28.1358 22.3555 28.1347 22.3555C28.1336 22.3555 28.1324 22.3554 28.1312 22.3553ZM29.3161 32.7564V25.4169H27.0096V32.7564H29.3161ZM32.3846 32.7564C32.8202 32.7557 33.1732 32.3642 33.1738 31.8809V25.4169H29.9385V32.7564H32.3846ZM33.9872 24.6113V23.2303C33.9868 22.7473 33.6339 22.3555 33.1983 22.355H29.9387V24.6113H33.9872ZM31.6589 19.7387C31.3803 19.4278 30.9272 19.4262 30.647 19.7351L29.0118 21.5494H31.0512L31.6554 20.8614C31.9358 20.5523 31.9372 20.0498 31.6589 19.7387ZM25.1835 20.3199C24.9041 20.6299 24.9041 21.1325 25.1837 21.4424L25.2797 21.5494H27.3038L26.1953 20.3199C25.9159 20.01 25.4629 20.01 25.1835 20.3199ZM23.0543 22.355C22.6187 22.3555 22.2657 22.7473 22.2651 23.2303V24.6113H26.3872V22.355H23.0543Z" fill="url(#paint1_linear_1_2058)"/>
<defs>
<linearGradient id="paint0_linear_1_2058" x1="25.5" y1="0" x2="25.4997" y2="50" gradientUnits="userSpaceOnUse">
<stop stop-color="#927628"/>
<stop offset="1" stop-color="#FFCE00"/>
</linearGradient>
<linearGradient id="paint1_linear_1_2058" x1="25.2695" y1="14.506" x2="25.2694" y2="37.7529" gradientUnits="userSpaceOnUse">
<stop stop-color="#927628"/>
<stop offset="1" stop-color="#FFCE00"/>
</linearGradient>
</defs>
</svg>
