<svg width="51" height="50" viewBox="0 0 51 50" fill="none" xmlns="http://www.w3.org/2000/svg">
<circle cx="25.5" cy="24.9999" r="24" fill="#F5F5F5" stroke="url(#paint0_linear_1_2069)" stroke-width="2"/>
<path fill-rule="evenodd" clip-rule="evenodd" d="M31.7311 15.8315C30.0442 14.5838 28.038 13.9185 25.9842 13.9253C20.4066 13.9253 15.8688 18.7578 15.8688 24.6979C15.8662 26.1227 16.1309 27.5333 16.647 28.8476C16.7085 29.0005 16.6884 29.1768 16.5941 29.3095C16.4998 29.4419 16.3459 29.5106 16.191 29.4889C16.0363 29.4672 15.9042 29.3585 15.8453 29.2047C15.2846 27.7773 14.9974 26.2451 15 24.6979C15 18.2477 19.9273 13 25.9842 13C28.2236 12.9925 30.4107 13.721 32.2472 15.0862L33.1781 13.7407C33.2813 13.5914 33.4581 13.5223 33.6275 13.5649C33.797 13.6072 33.9262 13.7533 33.9557 13.9361L34.5429 17.5439C34.563 17.6681 34.5346 17.7959 34.4643 17.8974C34.394 17.9988 34.2878 18.0654 34.1705 18.0817L30.761 18.5531C30.7423 18.5557 30.7236 18.557 30.705 18.557C30.5411 18.557 30.3913 18.4589 30.3174 18.3029C30.2437 18.1473 30.2582 17.9606 30.3554 17.8199L31.7311 15.8315ZM18.3726 35.6822C18.2034 35.6396 18.0742 35.4935 18.0444 35.3107L17.4568 31.7032C17.4366 31.5787 17.465 31.4509 17.5353 31.3495C17.6056 31.248 17.7118 31.1814 17.8291 31.1651L21.2389 30.6937C21.4112 30.67 21.5807 30.758 21.6689 30.9176C21.7572 31.0774 21.7477 31.2777 21.6444 31.4269L20.2688 33.4153C21.9557 34.663 23.9619 35.3283 26.0156 35.3216C31.5933 35.3216 36.131 30.489 36.131 24.5489C36.1337 23.1244 35.8692 21.7135 35.3529 20.3992C35.2913 20.2464 35.3117 20.07 35.406 19.9373C35.5 19.8049 35.654 19.7365 35.8089 19.7582C35.9635 19.7796 36.0956 19.8883 36.1545 20.0422C36.7152 21.4695 37.0027 23.0017 36.9998 24.5489C36.9998 30.9991 32.0726 36.2468 26.0156 36.2468C23.7762 36.2541 21.5894 35.5258 19.7531 34.1606L18.8223 35.5062C18.719 35.6554 18.542 35.7246 18.3726 35.6822Z" fill="url(#paint1_linear_1_2069)"/>
<path d="M26.53 28.1464C25.3834 28.1464 24.48 27.7931 23.82 27.0864L24.47 26.1864C25.0434 26.7998 25.7467 27.1064 26.58 27.1064C27.0267 27.1064 27.36 27.0164 27.58 26.8364C27.8067 26.6564 27.92 26.4431 27.92 26.1964C27.92 25.9431 27.7867 25.7431 27.52 25.5964C27.2534 25.4431 26.93 25.3231 26.55 25.2364C26.17 25.1498 25.7867 25.0464 25.4 24.9264C25.02 24.8064 24.6967 24.6031 24.43 24.3164C24.1634 24.0298 24.03 23.6598 24.03 23.2064C24.03 22.6464 24.2534 22.1831 24.7 21.8164C25.1534 21.4431 25.74 21.2564 26.46 21.2564C27.4867 21.2564 28.32 21.5664 28.96 22.1864L28.29 23.0564C27.7834 22.5498 27.14 22.2964 26.36 22.2964C26.0134 22.2964 25.7367 22.3731 25.53 22.5264C25.33 22.6731 25.23 22.8731 25.23 23.1264C25.23 23.2931 25.3 23.4331 25.44 23.5464C25.5867 23.6598 25.7734 23.7531 26 23.8264C26.2267 23.8931 26.4767 23.9598 26.75 24.0264C27.03 24.0931 27.3067 24.1764 27.58 24.2764C27.86 24.3698 28.1134 24.4864 28.34 24.6264C28.5667 24.7664 28.75 24.9598 28.89 25.2064C29.0367 25.4531 29.11 25.7464 29.11 26.0864C29.11 26.6864 28.8934 27.1798 28.46 27.5664C28.0267 27.9531 27.3834 28.1464 26.53 28.1464Z" fill="url(#paint2_linear_1_2069)"/>
<defs>
<linearGradient id="paint0_linear_1_2069" x1="25.5" y1="-6.10352e-05" x2="25.4997" y2="49.9999" gradientUnits="userSpaceOnUse">
<stop stop-color="#927628"/>
<stop offset="1" stop-color="#FFCE00"/>
</linearGradient>
<linearGradient id="paint1_linear_1_2069" x1="25.9999" y1="12.9999" x2="25.9998" y2="36.2469" gradientUnits="userSpaceOnUse">
<stop stop-color="#927628"/>
<stop offset="1" stop-color="#FFCE00"/>
</linearGradient>
<linearGradient id="paint2_linear_1_2069" x1="26.0348" y1="19.0264" x2="26.0347" y2="29.4125" gradientUnits="userSpaceOnUse">
<stop stop-color="#927628"/>
<stop offset="1" stop-color="#FFCE00"/>
</linearGradient>
</defs>
</svg>
